<?xml version="1.0" standalone="no"?>
<!DOCTYPE svg PUBLIC "-//W3C//DTD SVG 20010904//EN"
 "http://www.w3.org/TR/2001/REC-SVG-20010904/DTD/svg10.dtd">
<svg version="1.0" xmlns="http://www.w3.org/2000/svg"
 width="70.000000pt" height="70.000000pt" viewBox="0 0 70.000000 70.000000"
 preserveAspectRatio="xMidYMid meet">
<metadata>
Created by potrace 1.11, written by Peter Selinger 2001-2013
</metadata>
<g transform="translate(0.000000,70.000000) scale(0.100000,-0.100000)"
fill="#000000" stroke="none">
<path d="M529 628 c-43 -25 -39 -22 -44 -47 -2 -11 -7 -26 -11 -32 -4 -7 1 -9
12 -7 11 2 18 11 18 21 -1 9 2 17 6 17 16 0 39 -31 34 -45 -3 -8 1 -22 10 -30
20 -20 20 -26 2 -50 -12 -17 -18 -18 -40 -7 -14 6 -26 19 -25 29 0 11 3 13 6
6 6 -17 30 -16 36 0 3 8 1 20 -3 27 -7 11 -12 11 -23 2 -16 -13 -50 -6 -41 9
3 5 0 9 -6 9 -6 0 -9 8 -6 18 7 22 -61 52 -119 52 -95 0 -200 -85 -232 -187
-9 -29 -21 -53 -25 -53 -5 0 -6 5 -3 10 16 26 14 61 -4 79 -19 19 -20 18 -45
-41 -21 -48 -26 -75 -26 -141 0 -45 5 -89 10 -97 8 -12 10 -12 10 5 1 19 2 19
13 -3 7 -12 23 -29 35 -38 12 -8 22 -24 22 -35 0 -11 12 -37 26 -57 26 -37 26
-37 19 -7 -4 17 -7 44 -5 60 1 17 2 49 3 73 0 23 4 42 9 42 4 0 8 -15 8 -33 0
-51 47 -85 130 -94 52 -5 111 9 136 34 25 25 28 7 5 -37 -25 -47 -26 -61 -7
-54 17 7 88 108 104 149 6 17 17 44 23 60 7 17 13 33 13 37 1 3 5 10 9 14 16
16 -13 -117 -38 -180 -8 -17 -6 -17 23 -2 32 17 82 74 82 94 0 7 5 12 11 12 6
0 9 -7 6 -15 -4 -8 -3 -17 2 -19 4 -3 18 15 30 40 20 39 22 57 19 137 -3 80
-6 97 -30 131 -27 40 -77 76 -104 76 -25 0 -11 23 29 49 20 13 35 26 33 28
-13 14 -68 8 -97 -9z m-343 -253 c-4 -14 -11 -23 -16 -20 -12 7 -13 45 -3 71
6 16 7 16 16 -4 5 -11 7 -32 3 -47z m84 36 c0 -6 14 -18 30 -28 17 -9 30 -23
30 -29 0 -7 6 -14 12 -16 7 -3 2 -7 -10 -10 -14 -4 -20 -2 -15 5 4 7 0 8 -11
4 -9 -4 -15 -3 -11 2 3 6 0 13 -8 18 -17 11 -39 63 -27 63 6 0 10 -4 10 -9z
m303 -26 c4 -8 3 -16 -1 -19 -4 -3 -9 4 -9 15 -2 23 3 25 10 4z m-108 -62 c-4
-84 -4 -85 -14 -78 -5 3 -15 -1 -23 -8 -7 -8 -24 -19 -36 -26 -19 -10 -23 -9
-29 5 -3 9 0 20 8 24 11 7 10 10 -4 16 -15 5 -15 9 -5 22 11 13 9 15 -15 10
-18 -4 -26 -1 -24 6 7 21 74 19 94 -3 13 -14 23 -17 33 -11 10 7 11 10 3 10
-7 0 -13 6 -13 14 0 8 -12 24 -26 35 -27 21 -23 25 23 24 7 0 12 2 11 6 -1 15
3 22 11 17 5 -3 7 -32 6 -63z m112 7 c-2 -11 -6 -22 -9 -26 -4 -3 -5 2 -3 13
2 10 4 21 4 26 1 4 3 7 6 7 3 0 4 -9 2 -20z m-394 3 c-7 -2 -19 -2 -25 0 -7 3
-2 5 12 5 14 0 19 -2 13 -5z m-144 -50 c-6 -16 -10 -29 -10 -30 3 -11 0 -25
-5 -21 -8 9 7 78 17 78 5 0 4 -12 -2 -27z m48 8 c0 -11 -5 -18 -9 -15 -4 3 -5
11 -1 19 7 21 12 19 10 -4z m119 1 c35 -23 40 -84 8 -96 -19 -7 -31 23 -13 34
11 7 10 10 -4 16 -9 3 -17 13 -17 21 0 8 -4 11 -10 8 -5 -3 -10 -14 -10 -25 0
-13 -5 -17 -20 -13 -20 5 -28 23 -10 23 6 0 10 9 10 20 0 15 7 20 28 20 15 0
32 -4 38 -8z m254 -81 c-5 -11 -10 -29 -10 -40 0 -12 -4 -21 -9 -21 -5 0 -4
17 1 40 6 22 15 40 20 40 5 0 4 -9 -2 -19z m-145 -51 c-3 -5 -18 -9 -33 -9
l-27 1 30 8 c17 4 31 8 33 9 2 0 0 -3 -3 -9z"/>
<path d="M24 592 l-29 -16 31 -6 c17 -4 42 -18 55 -31 l24 -24 3 22 c3 19 7
21 22 13 21 -11 53 -3 44 11 -3 5 -16 9 -29 9 -13 0 -26 4 -29 9 -14 22 -62
29 -92 13z"/>
<path d="M86 502 c-8 -13 11 -35 23 -28 16 10 14 36 -3 36 -8 0 -17 -4 -20 -8z"/>
</g>
</svg>
